<?xml version="1.0" encoding="UTF-8"?>
<!DOCTYPE svg PUBLIC "-//W3C//DTD SVG 1.1//EN" "http://www.w3.org/Graphics/SVG/1.1/DTD/svg11.dtd">
<!-- Creator: CorelDRAW X7 -->
<svg xmlns="http://www.w3.org/2000/svg" xml:space="preserve" width="5.4086in" height="4.30562in" version="1.1" style="shape-rendering:geometricPrecision; text-rendering:geometricPrecision; image-rendering:optimizeQuality; fill-rule:evenodd; clip-rule:evenodd"
viewBox="0 0 1994 1587"
 xmlns:xlink="http://www.w3.org/1999/xlink">
 <defs>
  <style type="text/css">
   <![CDATA[
    .fil2 {fill:#3E3A55}
    .fil11 {fill:#522F16}
    .fil3 {fill:#665E7A}
    .fil9 {fill:#AAA9A9}
    .fil10 {fill:#D8CA8D}
    .fil6 {fill:#DEDDE2}
    .fil8 {fill:#F0B856}
    .fil7 {fill:#F5BCC2}
    .fil1 {fill:#FABB22}
    .fil5 {fill:#FDE5B4}
    .fil4 {fill:white}
    .fil0 {fill:#A9E0F9;fill-opacity:0.580392}
   ]]>
  </style>
 </defs>
 <g id="Layer_x0020_1">
  <metadata id="CorelCorpID_0Corel-Layer"/>
  <path class="fil0" d="M155 628c0,0 3,-354 723,-296 0,0 823,-838 883,149 60,988 -774,1159 -1011,1094 -742,-205 -584,-932 -595,-947z"/>
  <g id="_806715088">
   <path class="fil1" d="M1590 981l8 92 -222 -11c-11,7 -22,12 -29,25 -10,20 -12,33 14,32l14 -30 2 -4 510 38 18 -1 34 -3c4,-11 6,-15 -3,-24 -11,-11 -20,-8 -31,-38 -16,-45 -9,-110 -3,-158 23,-192 63,-159 91,-178l1 -17c-25,-6 -246,-6 -290,-7l-114 284z"/>
   <path class="fil2" d="M1478 477c-82,68 -78,101 -116,186 -9,18 -23,59 -30,71l-117 -3 -5 41c8,2 18,1 25,4 12,4 -3,6 14,9l151 -2c15,-8 35,-71 52,-83l22 88 6 36c-4,31 1,57 -6,93l116 64 114 -284c-4,-82 -18,-199 -113,-221 -5,-13 3,-8 -11,-21 -36,-4 -71,3 -102,22z"/>
   <path class="fil3" d="M1405 918l-219 0 -22 77c7,10 35,163 41,191 8,39 40,160 40,191 19,8 57,3 82,3l-38 -331 13 6 2 -4 72 11 222 11 -8 -92 -116 -64 -24 1 -5 -8 -4 9 -36 -1z"/>
   <path class="fil1" d="M209 1075l-52 2 23 411c22,3 163,5 179,0l29 -411 -156 0c-5,-1 -6,0 -10,-1 -8,-2 -4,-1 -8,-4l-5 3z"/>
   <path class="fil4" d="M1036 523l1 43 1 -43 -2 0zm-130 -84c10,-12 147,-7 169,-5l0 13 -131 0c-21,1 -29,6 -38,-8zm-49 154l368 1 5 -3 1 -219 -378 0 4 221z"/>
   <path class="fil5" d="M178 542c4,19 39,87 50,109 23,47 38,66 32,123 -14,-16 -2,-24 -16,-39l0 13 -18 -11c-17,-17 -14,-27 -25,-42 -28,-36 -68,-53 -116,-53 10,27 39,24 54,36 12,10 14,55 20,76l-37 -3c17,14 50,7 62,25 8,11 17,53 16,68l-21 -10c4,13 -2,6 18,17 15,8 4,7 15,27 4,9 7,9 12,19 -19,1 -25,-3 -25,20 -5,-9 4,-3 -11,-8l-7 39 -14 -4c10,16 12,5 17,18 3,8 2,27 2,35 0,22 1,44 11,61 5,10 6,8 12,17l5 -3c7,-14 2,-9 13,-14 -4,-9 5,-29 9,-44 2,-9 4,-15 6,-24 3,-13 1,-18 11,-22 -1,-13 4,-27 10,-39 7,-14 14,-16 30,-19 -3,39 -21,71 -13,110l19 -67c1,-16 6,-34 12,-48 4,-32 12,-71 40,-85l114 -36 -70 0c20,-7 12,-21 38,-31 23,-9 41,-2 61,0 33,3 113,-7 138,2l-1 -5 -108 0 -1 -8c-5,-6 -10,-13 -16,-17 -9,-7 -16,-5 -16,-5l11 -6c10,-4 6,2 12,-6 -15,3 -37,7 -45,5 -54,-14 -33,-4 -92,9 -20,4 -23,15 -34,13 -17,17 -40,145 -62,163 -9,-34 6,-147 18,-183 6,-18 22,-53 41,-60 13,-5 82,-4 96,-1 1,6 2,5 -2,11 22,3 15,-5 48,2 36,7 14,15 40,11l-3 7 23 6 18 2c1,-13 -1,-16 -7,-24 -9,-3 -23,-10 -27,-18 -25,-4 -11,-7 -31,-11 -87,-18 -50,11 -109,6 3,-23 6,-12 10,-27 4,-16 -1,-17 7,-38l22 -51c-16,1 -12,3 -25,11 -23,15 -36,13 -60,53 -4,6 -26,37 -28,44 -6,21 14,9 -10,37 -3,3 -6,7 -8,10 -6,-13 -19,-42 -32,-52 -4,-3 -3,-1 -6,-3 -13,-14 7,-3 -18,-30 -7,-8 0,-5 -15,-18 -3,-3 -5,-5 -9,-9 -3,-3 -3,-4 -7,-7l-28 -24z"/>
   <path class="fil3" d="M737 318l522 2 -1 297 -542 0 2 -252 -37 -1 3 301c5,26 20,40 44,46 -10,-15 -14,-8 -24,-26 -7,-13 -10,-23 -8,-37l591 0c-1,-53 4,-306 -1,-330 -5,-29 -29,-28 -53,-28l-250 -1c-20,22 -16,22 -50,23 -24,0 -40,2 -51,-22l-145 -1 0 29z"/>
   <path class="fil6" d="M857 593l-103 0 -3 -3 0 -218 102 0 378 0 -1 219 -5 3 -368 -1zm-108 -231c2,-24 27,-17 48,-17l388 0c27,0 44,-7 46,22 -81,0 -162,0 -243,0 -40,0 -80,0 -119,0l-106 1c-16,-3 -5,2 -14,-6zm-31 3l-2 252 542 0 1 -297 -522 -2c0,50 -6,26 -19,47z"/>
   <path class="fil3" d="M867 789l-54 0 -82 -1 -43 36 475 -1 -2 17 47 -14 176 4 2 -7 34 2 7 9c0,-13 -4,-5 3,-11l50 1 -6 -36c-13,1 -26,0 -40,1 -13,0 -30,3 -34,-6l-151 2c-13,10 -304,3 -346,4 -25,-38 -10,-41 -2,-77 -29,17 -19,53 -9,77l-25 0z"/>
   <path class="fil3" d="M660 822l-60 0c8,27 165,607 170,645l25 -5c-6,-48 -22,-109 -33,-157 -16,-76 -99,-437 -102,-483z"/>
   <path class="fil2" d="M1366 1375c23,2 47,8 69,-3l-1 -33 -19 -220 46 0 86 315 23 -5c3,-29 -65,-252 -72,-310l105 2 -218 -19 -5 6 -14 267z"/>
   <path class="fil6" d="M1361 1119l-10 156c-1,11 -3,12 -7,17 -1,8 3,30 2,51 -2,23 3,30 -11,46 14,3 10,12 9,30 -2,12 -2,24 -3,35 12,10 16,7 24,-4 -8,-10 -1,-32 -2,-47l3 -28 14 -267 5 -6 218 19c18,3 19,1 22,21 11,0 15,85 14,98 3,-3 2,2 5,-5 1,31 14,85 21,117l16 87c3,19 -1,17 15,18 4,-9 -45,-317 -52,-331l243 -3 -510 -38 -2 4 -14 30z"/>
   <path class="fil2" d="M1415 306l11 2c-4,28 -6,41 10,64 22,-9 -1,-15 22,-25 26,10 1,36 25,63 19,23 46,20 70,7 6,-11 24,-61 29,-76 17,-60 -20,-47 -32,-70 -2,-4 1,-18 -34,-17 -9,0 -18,2 -28,2 -10,0 -18,-3 -27,-2 -21,1 -18,13 -30,25 -11,9 -26,10 -16,27z"/>
   <path class="fil5" d="M833 115c-28,0 -92,7 -113,-3 8,-7 -5,-5 12,-7l48 -1c51,0 51,-5 53,11zm19 86c7,-24 17,-85 1,-107 -7,-9 -16,-18 -27,-21l-60 -1c-11,0 -29,-1 -39,1 -9,3 -19,10 -23,20l-11 56c-1,18 2,32 11,46l22 15c9,4 95,2 97,2 16,-4 -3,-9 29,-11z"/>
   <path class="fil2" d="M1161 840l-135 623c22,2 13,5 27,-46 6,-20 11,-39 16,-59 13,-50 92,-337 95,-363l22 -77 22 -92 -47 14z"/>
   <path class="fil5" d="M828 377c0,1 1,2 1,2l2 5c7,14 15,19 10,40 -1,0 -3,6 -3,7 -1,1 -1,2 -1,3 -17,28 -36,13 -61,12 -2,-29 -3,-17 -6,-29 -2,-10 0,-18 5,-27 11,-20 22,-13 53,-13zm29 216l-4 -221 -102 0 0 218 3 3 103 0z"/>
   <path class="fil4" d="M1208 826l-22 92 219 0c-4,-23 -21,-68 -21,-88l-176 -4z"/>
   <path class="fil2" d="M465 784l-114 36c4,8 14,4 25,5l224 -3 60 0 28 2 43 -36 0 -18 -115 -1 -1 15 -150 0z"/>
   <path class="fil5" d="M603 589c6,-5 -8,-3 7,-4 16,0 7,2 10,4 -5,17 -11,12 -17,0zm-49 79l3 -11c14,8 5,-1 10,12 5,13 -2,7 7,17 28,3 18,-11 53,-9 0,0 1,-2 1,-2l6 -8c8,13 0,4 8,8 10,6 4,-6 13,8l2 -7 -23 -112 -105 1 25 103z"/>
   <path class="fil2" d="M1226 1392c-22,25 -59,16 -79,23 -12,11 -12,16 -9,31 22,27 67,14 97,10 26,-4 29,0 53,2 18,2 34,-3 53,-4 1,-11 1,-23 3,-35 1,-18 5,-27 -9,-30l-5 -1c-24,2 -73,32 -95,13l-6 -7c-1,-1 -2,-2 -3,-2z"/>
   <path class="fil6" d="M1249 785c-17,-3 -2,-5 -14,-9 -7,-3 -17,-2 -25,-4 -20,8 -35,3 -53,-6 -25,-13 -19,3 -43,7 -4,-5 -5,8 -4,-11l-17 21 -98 0c-5,-37 -12,-25 -1,-68l-93 -3c-8,36 -23,39 2,77 42,-1 333,6 346,-4z"/>
   <path class="fil1" d="M342 735c-1,-19 23,-27 36,-45 14,-20 28,-25 55,-25 4,-6 3,-5 2,-11 -14,-3 -83,-4 -96,1 -19,7 -35,42 -41,60 -12,36 -27,149 -18,183 22,-18 45,-146 62,-163z"/>
   <path class="fil2" d="M1203 357c4,-2 -1,-8 9,0 -10,8 -3,4 -9,0zm-14 0c0,-8 4,-7 6,0 2,9 -6,3 -6,0zm-14 3c4,-6 -1,-4 7,-7 -3,9 3,6 -7,7zm56 7c-2,-29 -19,-22 -46,-22l-388 0c-21,0 -46,-7 -48,17 9,8 -2,3 14,6l106 -1c39,0 79,0 119,0 81,0 162,0 243,0z"/>
   <path class="fil7" d="M1478 477c31,-19 66,-26 102,-22l-14 -6 -13 -32c-24,13 -51,16 -70,-7 -24,-27 1,-53 -25,-63 -23,10 0,16 -22,25 -16,-23 -14,-36 -10,-64l-11 -2c-2,12 -14,76 -11,89 3,16 -1,-4 13,20l17 -2c-2,9 1,1 -4,8l-11 7c10,44 29,19 57,19l2 30z"/>
   <path class="fil3" d="M525 651c4,8 18,15 27,18l2 -1 -25 -103 105 -1 23 112 7 24 -104 4 -1 -11 -18 -2c3,4 2,3 5,9 2,5 4,13 5,18l-30 1 158 1 39 -4c-8,-6 -25,-2 -40,-4l-35 -159c-14,-3 -119,-3 -131,1 -10,18 11,72 13,97z"/>
   <path class="fil5" d="M882 290c11,24 27,22 51,22 34,-1 30,-1 50,-23 -5,-13 -5,-40 -8,-56 -15,-12 -59,-17 -79,-8 -6,11 3,0 -2,11 0,1 -1,2 -1,2 0,1 -1,2 -1,2 -1,1 -2,1 -2,2 -6,12 -1,21 -4,36 0,2 -1,2 -1,3l-3 9z"/>
   <path class="fil2" d="M1302 1055c-4,53 44,180 42,237 4,-5 6,-6 7,-17l10 -156c-26,1 -24,-12 -14,-32 7,-13 18,-18 29,-25l-72 -11 -2 4z"/>
   <path class="fil8" d="M675 342c-7,-11 -5,-31 -3,-46l28 2c3,19 -5,18 0,43 -11,-2 -9,-9 -15,-18 -12,14 3,13 -10,19zm9 323l-3 -301 37 1c13,-21 19,3 19,-47l0 -29c-10,-7 -10,-10 -19,-14 -6,-2 -66,-9 -78,14 -5,11 -6,45 -2,56 7,21 26,21 44,21l2 299z"/>
   <path class="fil3" d="M1055 183c0,-34 46,-34 45,0l-45 0zm32 -33c-28,9 -26,-24 -1,-16l1 16zm-37 -32c-27,9 -29,47 -21,69 9,26 57,26 77,20 27,-8 27,-51 19,-72 -9,-24 -58,-22 -75,-17z"/>
   <path class="fil4" d="M1327 1380c-5,3 10,5 -6,2l9 6 5 1c14,-16 9,-23 11,-46 1,-21 -3,-43 -2,-51 2,-57 -46,-184 -42,-237l-13 -6 38 331z"/>
   <path class="fil4" d="M433 665c-27,0 -41,5 -55,25 -13,18 -37,26 -36,45 11,2 14,-9 34,-13 59,-13 38,-23 92,-9 8,2 30,-2 45,-5l5 -23 3 -7c-26,4 -4,-4 -40,-11 -33,-7 -26,1 -48,-2z"/>
   <path class="fil5" d="M357 901l-3 1c-9,3 -4,0 -10,1 -18,4 -7,-3 -13,8l16 6 10 4 -10 10 1 5c23,-9 13,-16 31,-5 15,10 15,5 28,14 69,47 43,76 82,78 -4,-32 -24,-87 -55,-108 -6,-5 -5,-3 -11,-7 0,-1 -9,-8 -9,-8 -12,-9 -39,0 -57,1z"/>
   <path class="fil9" d="M1905 1122l-18 1c8,58 37,184 50,256 4,20 6,72 25,80 5,-9 5,-10 3,-25 -17,-99 -44,-212 -60,-312z"/>
   <path class="fil2" d="M1363 1403c1,15 -6,37 2,47 22,0 62,12 79,-3 16,-14 14,-51 4,-68 -4,0 -75,21 -85,24z"/>
   <path class="fil5" d="M124 912l-11 -13c39,-35 30,-19 66,-7l-4 -11c-27,-8 -22,-7 -52,-7 -27,0 -28,-1 -51,-8 -24,18 -57,90 -58,122 22,-11 41,-44 61,-59 35,-27 18,-23 49,-17z"/>
   <path class="fil4" d="M465 784l150 0 1 -15c-27,0 -115,6 -133,-3 15,-10 129,-3 148,-4l1 -7c-25,-9 -105,1 -138,-2 -20,-2 -38,-9 -61,0 -26,10 -18,24 -38,31l70 0z"/>
   <path class="fil1" d="M179 834l21 10c1,-15 -8,-57 -16,-68 -12,-18 -45,-11 -62,-25 -31,6 -96,-19 -122,-2 11,10 13,7 27,7 13,1 20,4 31,5 14,0 56,-20 71,23 7,22 19,43 50,50z"/>
   <path class="fil9" d="M1639 1240c1,-13 -3,-98 -14,-98 0,44 -11,173 -14,233 -1,20 -6,67 3,80 15,-3 12,-1 13,-18l12 -197z"/>
   <path class="fil3" d="M325 945c-3,7 -3,5 -9,11 -1,2 -3,4 -4,6 -4,3 -2,1 -5,4l-14 42 6 -55 -19 67 -2 38 29 0c0,0 1,-3 1,-2 0,0 1,-2 1,-2 7,-16 2,-17 7,-11 10,-12 13,-38 17,-54 5,-17 10,-36 15,-53l-1 -5 -22 14z"/>
   <path class="fil2" d="M1384 830c0,20 17,65 21,88l36 1 4 -9 -18 -76 -7 -9 -34 -2 -2 7z"/>
   <path class="fil7" d="M1110 762c-1,19 0,6 4,11 24,-4 18,-20 43,-7 18,9 33,14 53,6l5 -41c-41,-17 -80,-7 -105,31z"/>
   <path class="fil4" d="M1427 834l18 76 5 8 24 -1c7,-36 2,-62 6,-93l-50 -1c-7,6 -3,-2 -3,11z"/>
   <path class="fil4" d="M522 742l158 0 -1 -22 -158 -1 -31 1c0,0 7,-2 16,5 6,4 11,11 16,17z"/>
   <path class="fil4" d="M819 433c-12,-7 -4,0 -12,-14 -10,13 3,6 -10,13l-2 -39 21 2c6,11 1,22 3,38zm-43 13c25,1 44,16 61,-12 0,-1 0,-2 1,-3 0,-1 2,-7 3,-7 5,-21 -3,-26 -10,-40l-2 -5c0,0 -1,-1 -1,-2 -31,0 -42,-7 -53,13 -5,9 -7,17 -5,27 3,12 4,0 6,29z"/>
   <path class="fil8" d="M143 526c29,20 99,173 101,209 14,15 2,23 16,39 6,-57 -9,-76 -32,-123 -11,-22 -46,-90 -50,-109 -4,-15 -17,-27 -31,-30l-14 -1 10 15z"/>
   <path class="fil3" d="M311 905l43 -3 3 -1 19 -76c-11,-1 -21,3 -25,-5 -28,14 -36,53 -40,85z"/>
   <path class="fil4" d="M1400 783c4,9 21,6 34,6 14,-1 27,0 40,-1l-22 -88c-17,12 -37,75 -52,83z"/>
   <path class="fil2" d="M278 1058l-6 0 -45 0c-11,5 -6,0 -13,14 4,3 0,2 8,4 4,1 5,0 10,1l156 0 0 -18 -72 -1 0 -15c-5,-6 0,-5 -7,11 0,0 -1,2 -1,2 0,-1 -1,2 -1,2l-29 0z"/>
   <path class="fil1" d="M673 755c10,-5 26,-6 35,0 -8,8 -25,7 -35,0zm-57 14l115 1c3,0 5,0 8,-1 9,-2 4,-1 8,-3l1 -19 -24 0c-24,5 -49,2 -74,3l-2 12c-6,-5 -4,10 -6,-12l-11 0 1 5 -1 7c-19,1 -133,-6 -148,4 18,9 106,3 133,3z"/>
   <path class="fil1" d="M124 912c14,8 22,23 43,32l14 4 7 -39 -9 -17c-36,-12 -27,-28 -66,7l11 13z"/>
   <path class="fil4" d="M227 1058l45 0c3,-22 1,-83 -19,-90 -10,4 -8,9 -11,22 -2,9 -4,15 -6,24 -4,15 -13,35 -9,44z"/>
   <path class="fil8" d="M554 668l-2 1c6,8 8,11 7,24l1 11 104 -4 -7 -24 -2 7c-9,-14 -3,-2 -13,-8 -8,-4 0,5 -8,-8l-6 8c0,0 -1,2 -1,2 -35,-2 -25,12 -53,9 -9,-10 -2,-4 -7,-17 -5,-13 4,-4 -10,-12l-3 11z"/>
   <path class="fil2" d="M716 725c-8,9 -22,7 -26,1 3,-4 -7,-5 12,-6 17,-1 12,3 14,5zm-194 17l1 8 108 0 11 0c2,22 0,7 6,12l2 -12c25,-1 50,2 74,-3 -1,-5 0,-11 0,-16 -1,-3 0,-6 -1,-9 -4,-11 3,-1 -5,-6l-39 4 1 22 -158 0z"/>
   <path class="fil6" d="M1075 434c-22,-2 -159,-7 -169,5 9,14 17,9 38,8l131 0 0 -13z"/>
   <path class="fil1" d="M253 968c20,7 22,68 19,90l6 0 2 -38c-8,-39 10,-71 13,-110 -16,3 -23,5 -30,19 -6,12 -11,26 -10,39z"/>
   <path class="fil3" d="M824 742c0,-23 4,-33 31,-24 7,31 -5,34 -31,24zm-15 14l60 -1 4 -48 -67 0 3 49z"/>
   <path class="fil7" d="M1226 1392c1,0 2,1 3,2l6 7c22,19 71,-11 95,-13l-9 -6c16,3 1,1 6,-2 -25,0 -63,5 -82,-3l-2 7c-2,1 -7,2 -8,2 -5,3 -4,2 -9,6z"/>
   <polygon class="fil1" points="806,707 873,707 873,683 807,684 "/>
   <path class="fil7" d="M1366 1375l-3 28c10,-3 81,-24 85,-24l-9 -5c3,-13 2,-24 -5,-35l1 33c-22,11 -46,5 -69,3z"/>
   <path class="fil8" d="M720 112c21,10 85,3 113,3 -2,-16 -2,-11 -53,-11l-48 1c-17,2 -4,0 -12,7z"/>
   <path class="fil1" d="M815 785c14,-4 31,3 49,3l0 -27c-16,-5 -28,-4 -44,1l-5 23z"/>
   <path class="fil2" d="M807 684l66 -1c4,-9 2,-6 -4,-16 -17,0 -75,-9 -62,17z"/>
   <path class="fil2" d="M513 708c-6,8 -2,2 -12,6l-11 6 31 -1 30 -1c-1,-5 -3,-13 -5,-18 -3,-6 -2,-5 -5,-9l-23 -6 -5 23z"/>
   <path class="fil5" d="M675 342c13,-6 -2,-5 10,-19 6,9 4,16 15,18 -5,-25 3,-24 0,-43l-28 -2c-2,15 -4,35 3,46z"/>
   <path class="fil4" d="M1055 183l45 0c1,-34 -45,-34 -45,0z"/>
   <path class="fil2" d="M824 742c26,10 38,7 31,-24 -27,-9 -31,1 -31,24z"/>
   <path class="fil8" d="M299 953l-6 55 14 -42c-9,-8 -1,-36 2,-48 15,3 1,-3 16,13 1,1 2,3 3,2 0,0 1,2 2,3l-5 9 22 -14 10 -10 -10 -4c-5,4 1,-3 -3,16 -18,-3 -24,-8 -26,-27l13 5c6,-11 -5,-4 13,-8 6,-1 1,2 10,-1l-43 3c-6,14 -11,32 -12,48z"/>
   <path class="fil2" d="M157 1077l52 -2c-6,-9 -7,-7 -12,-17l-40 0 0 19z"/>
   <path class="fil1" d="M307 966c3,-3 1,-1 5,-4 1,-2 3,-4 4,-6 6,-6 6,-4 9,-11l5 -9c-1,-1 -2,-3 -2,-3 -1,1 -2,-1 -3,-2 -15,-16 -1,-10 -16,-13 -3,12 -11,40 -2,48z"/>
   <path class="fil8" d="M815 785l5 -23c16,-5 28,-6 44,-1l0 27c-18,0 -35,-7 -49,-3zm0 0l-2 4 54 0 2 -34 -60 1c1,6 1,12 1,17 2,16 -2,7 5,12z"/>
   <path class="fil3" d="M1002 667l-3 21c37,10 28,-16 25,-20 -11,-7 -11,-6 -22,-1z"/>
   <path class="fil10" d="M808 398c2,1 6,-1 5,7 0,14 1,4 -6,9 -4,-4 -7,8 -6,-10 1,-10 3,-4 7,-6zm11 35c-2,-16 3,-27 -3,-38l-21 -2 2 39c13,-7 0,0 10,-13 8,14 0,7 12,14z"/>
   <path class="fil1" d="M347 917l-16 -6 -13 -5c2,19 8,24 26,27 4,-19 -2,-12 3,-16z"/>
   <path class="fil4" d="M1087 150l-1 -16c-25,-8 -27,25 1,16z"/>
   <path class="fil11" d="M673 755c10,7 27,8 35,0 -9,-6 -25,-5 -35,0z"/>
   <path class="fil5" d="M690 726c4,6 18,8 26,-1 -2,-2 3,-6 -14,-5 -19,1 -9,2 -12,6z"/>
   <path class="fil5" d="M143 526l-10 -15 14 1c-6,-8 -11,-7 -22,-7 0,12 7,16 18,21z"/>
   <path class="fil8" d="M610 585c-15,1 -1,-1 -7,4 6,12 12,17 17,0 -3,-2 6,-4 -10,-4z"/>
   <path class="fil5" d="M813 405c1,-8 -3,-6 -5,-7 -4,2 -6,-4 -7,6 -1,18 2,6 6,10 7,-5 6,5 6,-9z"/>
   <polygon class="fil5" points="1038,523 1037,566 1036,523 "/>
   <path class="fil4" d="M1189 357c0,3 8,9 6,0 -2,-7 -6,-8 -6,0z"/>
   <path class="fil6" d="M1203 357c6,4 -1,8 9,0 -10,-8 -5,-2 -9,0z"/>
   <path class="fil4" d="M1175 360c10,-1 4,2 7,-7 -8,3 -3,1 -7,7z"/>
  </g>
 </g>
</svg>
